<mxfile host="app.diagrams.net" modified="2022-10-19T05:43:16.590Z" agent="5.0 (X11; Linux x86_64) AppleWebKit/537.36 (KHTML, like Gecko) Chrome/106.0.0.0 Safari/537.36" etag="BJUlZnkb0n_7XjibZ2yu" version="20.4.1" type="github">
  <diagram id="ptNaspWl4-tR2S-4j4RG" name="第 1 页">
    <mxGraphModel dx="1588" dy="800" grid="1" gridSize="10" guides="1" tooltips="1" connect="1" arrows="1" fold="1" page="1" pageScale="1" pageWidth="827" pageHeight="1169" math="0" shadow="0">
      <root>
        <mxCell id="0" />
        <mxCell id="1" parent="0" />
        <mxCell id="23Z4OvW_dukLF1XysgEK-1" value="&lt;font style=&quot;font-size: 24px;&quot;&gt;讀取完畢&lt;/font&gt;" style="rounded=1;whiteSpace=wrap;html=1;" vertex="1" parent="1">
          <mxGeometry x="100" y="210" width="120" height="60" as="geometry" />
        </mxCell>
        <mxCell id="23Z4OvW_dukLF1XysgEK-2" value="" style="endArrow=classic;html=1;rounded=0;exitX=1;exitY=0.5;exitDx=0;exitDy=0;" edge="1" parent="1" source="23Z4OvW_dukLF1XysgEK-1">
          <mxGeometry width="50" height="50" relative="1" as="geometry">
            <mxPoint x="390" y="440" as="sourcePoint" />
            <mxPoint x="380" y="160" as="targetPoint" />
          </mxGeometry>
        </mxCell>
        <mxCell id="23Z4OvW_dukLF1XysgEK-3" value="" style="endArrow=classic;html=1;rounded=0;exitX=1;exitY=0.5;exitDx=0;exitDy=0;" edge="1" parent="1" source="23Z4OvW_dukLF1XysgEK-1">
          <mxGeometry width="50" height="50" relative="1" as="geometry">
            <mxPoint x="390" y="440" as="sourcePoint" />
            <mxPoint x="370" y="330" as="targetPoint" />
          </mxGeometry>
        </mxCell>
        <mxCell id="23Z4OvW_dukLF1XysgEK-4" value="&lt;font style=&quot;font-size: 24px;&quot;&gt;把軌跡上傳到雲端&lt;/font&gt;" style="rounded=1;whiteSpace=wrap;html=1;" vertex="1" parent="1">
          <mxGeometry x="380" y="130" width="250" height="60" as="geometry" />
        </mxCell>
        <mxCell id="23Z4OvW_dukLF1XysgEK-5" value="把軌跡存儲到本地" style="rounded=1;whiteSpace=wrap;html=1;fontSize=24;" vertex="1" parent="1">
          <mxGeometry x="370" y="300" width="260" height="60" as="geometry" />
        </mxCell>
      </root>
    </mxGraphModel>
  </diagram>
</mxfile>
